<svg width="75" height="71" viewBox="0 0 75 71" fill="none" xmlns="http://www.w3.org/2000/svg">
<path d="M57.4647 53.1631C55.7193 53.1631 54.0131 53.6821 52.5618 54.6544C51.1106 55.6266 49.9795 57.0086 49.3115 58.6254C48.6436 60.2423 48.4688 62.0214 48.8093 63.7378C49.1499 65.4542 49.9904 67.0309 51.2245 68.2683C52.4587 69.5058 54.0312 70.3485 55.7431 70.69C57.4549 71.0314 59.2293 70.8561 60.8419 70.1864C62.4544 69.5167 63.8327 68.3826 64.8024 66.9275C65.7721 65.4724 66.2897 63.7616 66.2897 62.0116C66.2873 59.6655 65.3568 57.4163 63.7023 55.7574C62.0478 54.0985 59.8045 53.1655 57.4647 53.1631V53.1631ZM57.4647 67.2723C56.4249 67.2723 55.4084 66.963 54.5439 66.3836C53.6794 65.8041 53.0058 64.9806 52.6082 64.0172C52.2107 63.0537 52.1071 61.9937 52.3107 60.9713C52.5142 59.9488 53.0156 59.0098 53.7515 58.2732C54.4875 57.5366 55.4248 57.0354 56.4449 56.8331C57.465 56.6308 58.522 56.7364 59.4822 57.1366C60.4424 57.5369 61.2626 58.2137 61.839 59.0815C62.4155 59.9492 62.7222 60.9689 62.7204 62.0116C62.7181 63.4076 62.1633 64.7457 61.1779 65.732C60.1925 66.7183 58.8571 67.2723 57.4647 67.2723V67.2723Z" fill="white"/>
<path d="M73.1695 12.7235H19.9878L18.4708 6.35335C18.0978 4.78866 17.2099 3.39561 15.9504 2.39896C14.6908 1.4023 13.1332 0.860156 11.5287 0.860001H1.78462C1.31131 0.860001 0.857385 1.04852 0.522704 1.38409C0.188022 1.71967 0 2.1748 0 2.64937C0 3.12394 0.188022 3.57907 0.522704 3.91464C0.857385 4.25021 1.31131 4.43873 1.78462 4.43873H11.6C12.3985 4.45809 13.1674 4.74541 13.7837 5.25472C14.4001 5.76403 14.8283 6.4659 14.9997 7.24804L22.8075 39.9219C23.3688 42.2672 24.7014 44.3548 26.5905 45.848C28.4796 47.3413 30.8152 48.1532 33.2207 48.1529H58.7408C61.1603 48.1529 63.5085 47.3313 65.4027 45.822C67.297 44.3127 68.6255 42.2046 69.1719 39.8413L74.9541 14.9155C75.0155 14.6494 75.0153 14.3727 74.9535 14.1067C74.8918 13.8406 74.7701 13.5923 74.5979 13.3807C74.4256 13.1691 74.2073 12.9999 73.9597 12.886C73.7121 12.772 73.4418 12.7165 73.1695 12.7235ZM65.6919 39.0182C65.3272 40.5927 64.4417 41.997 63.1795 43.0026C61.9174 44.0082 60.3529 44.5558 58.7408 44.5563H33.2207C31.6162 44.5562 30.0585 44.014 28.799 43.0174C27.5395 42.0207 26.6516 40.6277 26.2786 39.063L20.8444 16.3022H70.9476L65.6919 39.0182Z" fill="white"/>
<path d="M32.1231 53.1631C30.3776 53.1631 28.6714 53.6821 27.2202 54.6544C25.7689 55.6266 24.6378 57.0086 23.9699 58.6254C23.3019 60.2423 23.1272 62.0214 23.4677 63.7378C23.8082 65.4542 24.6487 67.0309 25.8829 68.2683C27.1171 69.5058 28.6895 70.3485 30.4014 70.69C32.1133 71.0314 33.8877 70.8561 35.5002 70.1864C37.1128 69.5167 38.491 68.3826 39.4607 66.9275C40.4304 65.4724 40.948 63.7616 40.948 62.0116C40.9456 59.6655 40.0151 57.4163 38.3606 55.7574C36.7061 54.0985 34.4628 53.1655 32.1231 53.1631V53.1631ZM32.1231 67.2723C31.0832 67.2723 30.0667 66.963 29.2022 66.3836C28.3377 65.8041 27.6641 64.9806 27.2666 64.0172C26.869 63.0537 26.7655 61.9937 26.969 60.9713C27.1725 59.9488 27.674 59.0098 28.4099 58.2732C29.1458 57.5366 30.0831 57.0354 31.1032 56.8331C32.1233 56.6308 33.1803 56.7364 34.1405 57.1366C35.1007 57.5369 35.9209 58.2137 36.4974 59.0815C37.0738 59.9492 37.3805 60.9689 37.3788 62.0116C37.3764 63.4076 36.8216 64.7457 35.8362 65.732C34.8509 66.7183 33.5154 67.2723 32.1231 67.2723V67.2723Z" fill="white"/>
</svg>
