<svg width="14" height="14" viewBox="0 0 14 14" fill="none" xmlns="http://www.w3.org/2000/svg">
<path fill-rule="evenodd" clip-rule="evenodd" d="M7 13C10.3137 13 13 10.3137 13 7C13 3.68629 10.3137 1 7 1C3.68629 1 1 3.68629 1 7C1 10.3137 3.68629 13 7 13ZM7 14C10.866 14 14 10.866 14 7C14 3.13401 10.866 0 7 0C3.13401 0 0 3.13401 0 7C0 10.866 3.13401 14 7 14ZM9.8536 4.14645C10.0488 4.34171 10.0488 4.65829 9.8536 4.85355L7.70711 7L9.8536 9.1464C10.0488 9.3417 10.0488 9.6583 9.8536 9.8536C9.6583 10.0488 9.3417 10.0488 9.1464 9.8536L7 7.70711L4.85355 9.8536C4.65829 10.0488 4.34171 10.0488 4.14645 9.8536C3.95118 9.6583 3.95118 9.3417 4.14645 9.1464L6.29289 7L4.14645 4.85355C3.95118 4.65829 3.95118 4.34171 4.14645 4.14645C4.34171 3.95118 4.65829 3.95118 4.85355 4.14645L7 6.29289L9.1464 4.14645C9.3417 3.95118 9.6583 3.95118 9.8536 4.14645Z" fill="white"/>
</svg>
