<svg xmlns="http://www.w3.org/2000/svg" xmlns:xlink="http://www.w3.org/1999/xlink" version="1.1" x="0px" y="0px" viewBox="0 0 100 125" style="enable-background:new 0 0 100 100;" xml:space="preserve"><style type="text/css">
	.st0{fill:none;stroke:#000000;stroke-width:2;stroke-miterlimit:10;}
	.st1{fill:none;stroke:#000000;stroke-miterlimit:10;}
	.st2{fill:none;stroke:#000000;stroke-linecap:round;stroke-linejoin:round;stroke-miterlimit:10;}
	.st3{fill:none;stroke:#000000;stroke-width:2;stroke-linecap:round;stroke-linejoin:round;stroke-miterlimit:10;}
</style><g><path d="M93,7v86H7V7H93 M95,5H5v90h90V5L95,5z"/></g><g><path d="M50.5,44.2L50.5,44.2c-0.2,0-0.3,0-0.5,0c-22.1,0-22.5-4.8-22.5-5c0,0.3,0.9,23.4,15,27.5c1,0.3,1.9,0.6,2.7,0.8   c-0.6,0.8-2,1.7-2,1.7h6.3v0h7.2c0,0-1.4-0.8-2-1.7c0.8-0.2,1.7-0.5,2.7-0.8c14.1-4.1,15-27.2,15-27.5   C72.5,39.4,72.1,44.2,50.5,44.2z"/><path d="M30.1,35.8l-1.8,2.5c-0.2,0.3-0.2,0.7,0.1,0.9l2,2c0.1,0.1,0.2,0.1,0.3,0.2l4.8,1.4c0,0,0.1,0,0.2,0l4.3,0.3   c0.7,0.1,1-0.9,0.4-1.3l-9.2-6.2C30.7,35.4,30.3,35.5,30.1,35.8z"/><path d="M32.1,35.5l10.9,7c0.3,0.2,0.6,0.2,0.9,0l2.6-2c0.4-0.3,0.4-1-0.1-1.3l-10.6-6.6c-0.2-0.2-0.6-0.2-0.8,0l-2.9,1.6   C31.6,34.4,31.6,35.1,32.1,35.5z"/><path d="M37.6,32.5l10.6,6.6c0.2,0.1,0.4,0.1,0.6,0l3.6-2.8c0.3-0.2,0.2-0.7-0.1-0.8l-9.6-4.6c-0.1,0-0.2-0.1-0.3,0l-4.5,0.8   C37.3,31.6,37.2,32.2,37.6,32.5z"/><path d="M54,35.2l5.5-2.4c0.4-0.2-0.3-0.7-0.7-0.8l-5.9-1.2c0,0-0.1,0-0.1,0H45c-0.5,0-1,0.3-0.5,0.5l9.1,3.9   C53.7,35.2,53.9,35.2,54,35.2z"/><path d="M61,32.8l4.1,1.6c0.4,0.2,0.4,0.7,0.1,0.9l-12.5,7.9c-0.1,0.1-0.2,0.1-0.3,0.1h-6.8c-0.5,0-0.7-0.6-0.3-0.9l8.3-6.1"/><path d="M65.8,35.4l-10.1,6.7c-0.4,0.3-0.2,1,0.3,0.9l3.4-0.3c0.1,0,0.2,0,0.3-0.1l7.7-5.9c0.3-0.2,0.3-0.7-0.1-0.8l-1-0.5   C66.1,35.3,65.9,35.3,65.8,35.4z"/><path d="M68.2,37L62,41.6c-0.4,0.3-0.1,1,0.4,0.9l5.5-0.7c0.1,0,0.1,0,0.2-0.1l3.3-2c0.3-0.2,0.3-0.6,0-0.8L68.8,37   C68.6,36.8,68.4,36.8,68.2,37z"/></g><text x="0" y="115" fill="#000000" font-size="5px" font-weight="bold" font-family="'Helvetica Neue', Helvetica, Arial-Unicode, Arial, Sans-serif">Created by Guilhem</text><text x="0" y="120" fill="#000000" font-size="5px" font-weight="bold" font-family="'Helvetica Neue', Helvetica, Arial-Unicode, Arial, Sans-serif">from the Noun Project</text></svg>